<?xml version="1.0" encoding="UTF-8"?> <svg xmlns="http://www.w3.org/2000/svg" width="368" height="45" viewBox="0 0 368 45" fill="none"><path d="M341.312 44.367H336.206C335.838 44.367 335.562 44.252 335.378 44.022C335.24 43.792 335.263 43.493 335.447 43.125L346.832 21.39L335.93 1.242C335.746 0.919999 335.723 0.643999 335.861 0.414C336.045 0.138 336.321 0 336.689 0H341.588C342.508 0 343.152 0.390998 343.52 1.173L351.455 17.181H351.731L359.666 1.173C360.08 0.390998 360.678 0 361.46 0H366.566C366.934 0 367.187 0.138 367.325 0.414C367.509 0.689999 367.532 0.988998 367.394 1.311L356.354 21.39L367.739 43.056C367.923 43.424 367.946 43.746 367.808 44.022C367.67 44.252 367.394 44.367 366.98 44.367H361.805C361.069 44.367 360.54 43.999 360.218 43.263L351.731 26.427H351.455L342.968 43.263C342.646 43.999 342.094 44.367 341.312 44.367Z" fill="black"></path><path d="M311.383 38.502H317.386C320.744 38.502 322.423 36.8 322.423 33.396V10.971C322.423 7.567 320.744 5.865 317.386 5.865H311.383C308.071 5.865 306.415 7.567 306.415 10.971V33.396C306.415 36.8 308.071 38.502 311.383 38.502ZM318.421 44.367H310.417C307.013 44.367 304.368 43.424 302.482 41.538C300.642 39.652 299.722 37.03 299.722 33.672V10.695C299.722 7.291 300.642 4.669 302.482 2.829C304.368 0.942999 307.013 0 310.417 0H318.421C321.825 0 324.47 0.942999 326.356 2.829C328.242 4.669 329.185 7.291 329.185 10.695V33.672C329.185 37.03 328.242 39.652 326.356 41.538C324.47 43.424 321.825 44.367 318.421 44.367Z" fill="black"></path><path d="M269.793 38.64H279.453C282.903 38.64 284.628 36.984 284.628 33.672V29.394C284.628 26.082 282.811 24.426 279.177 24.426H269.793C269.287 24.426 269.034 24.656 269.034 25.116V37.95C269.034 38.41 269.287 38.64 269.793 38.64ZM269.793 18.906H278.763C282.259 18.906 284.007 17.227 284.007 13.869V10.695C284.007 7.383 282.305 5.727 278.901 5.727H269.793C269.287 5.727 269.034 5.957 269.034 6.417V18.216C269.034 18.676 269.287 18.906 269.793 18.906ZM262.341 43.194V1.173C262.341 0.390998 262.732 0 263.514 0H279.867C283.271 0 285.916 0.92 287.802 2.76C289.688 4.6 290.631 7.199 290.631 10.557V13.938C290.631 17.94 288.745 20.516 284.973 21.666C286.767 21.896 288.239 22.678 289.389 24.012C290.585 25.346 291.183 27.14 291.183 29.394V33.81C291.183 37.168 290.24 39.767 288.354 41.607C286.468 43.447 283.846 44.367 280.488 44.367H263.514C262.732 44.367 262.341 43.976 262.341 43.194Z" fill="black"></path><path d="M254.806 44.367H232.45C231.668 44.367 231.277 43.976 231.277 43.194V1.173C231.277 0.390998 231.668 0 232.45 0H236.797C237.579 0 237.97 0.390998 237.97 1.173V37.674C237.97 38.134 238.246 38.364 238.798 38.364H254.806C255.588 38.364 255.979 38.778 255.979 39.606V43.194C255.979 43.976 255.588 44.367 254.806 44.367Z" fill="black"></path><path d="M204.177 38.502H210.18C213.538 38.502 215.217 36.8 215.217 33.396V10.971C215.217 7.567 213.538 5.865 210.18 5.865H204.177C200.865 5.865 199.209 7.567 199.209 10.971V33.396C199.209 36.8 200.865 38.502 204.177 38.502ZM211.215 44.367H203.211C199.807 44.367 197.162 43.424 195.276 41.538C193.436 39.652 192.516 37.03 192.516 33.672V10.695C192.516 7.291 193.436 4.669 195.276 2.829C197.162 0.942999 199.807 0 203.211 0H211.215C214.619 0 217.264 0.942999 219.15 2.829C221.036 4.669 221.979 7.291 221.979 10.695V33.672C221.979 37.03 221.036 39.652 219.15 41.538C217.264 43.424 214.619 44.367 211.215 44.367Z" fill="black"></path><path d="M166.106 38.502H172.109C175.467 38.502 177.146 36.8 177.146 33.396V10.971C177.146 7.567 175.467 5.865 172.109 5.865H166.106C162.794 5.865 161.138 7.567 161.138 10.971V33.396C161.138 36.8 162.794 38.502 166.106 38.502ZM173.144 44.367H165.14C161.736 44.367 159.091 43.424 157.205 41.538C155.365 39.652 154.445 37.03 154.445 33.672V10.695C154.445 7.291 155.365 4.669 157.205 2.829C159.091 0.942999 161.736 0 165.14 0H173.144C176.548 0 179.193 0.942999 181.079 2.829C182.965 4.669 183.908 7.291 183.908 10.695V33.672C183.908 37.03 182.965 39.652 181.079 41.538C179.193 43.424 176.548 44.367 173.144 44.367Z" fill="black"></path><path d="M137.361 44.367H133.014C132.186 44.367 131.771 43.976 131.771 43.194V6.555C131.771 6.095 131.542 5.865 131.082 5.865H122.388C121.56 5.865 121.146 5.474 121.146 4.692V1.173C121.146 0.390998 121.56 0 122.388 0H147.987C148.815 0 149.229 0.390998 149.229 1.173V4.692C149.229 5.474 148.815 5.865 147.987 5.865H139.293C138.787 5.865 138.534 6.095 138.534 6.555V43.194C138.534 43.976 138.143 44.367 137.361 44.367Z" fill="black"></path><path d="M91.0011 44.367H86.6541C85.8261 44.367 85.4121 43.976 85.4121 43.194V6.555C85.4121 6.095 85.1821 5.865 84.7221 5.865H76.0281C75.2001 5.865 74.7861 5.474 74.7861 4.692V1.173C74.7861 0.390998 75.2001 0 76.0281 0H101.627C102.455 0 102.869 0.390998 102.869 1.173V4.692C102.869 5.474 102.455 5.865 101.627 5.865H92.9331C92.4271 5.865 92.1741 6.095 92.1741 6.555V43.194C92.1741 43.976 91.7831 44.367 91.0011 44.367Z" fill="black"></path><path d="M44.0809 44.367H39.8029C39.0209 44.367 38.6299 43.976 38.6299 43.194V1.173C38.6299 0.390998 39.0209 0 39.8029 0H43.6669C44.4029 0 44.9089 0.253 45.1849 0.758999L61.8829 30.774H62.1589V1.173C62.1589 0.390998 62.5499 0 63.3319 0H67.6099C68.3919 0 68.7829 0.390998 68.7829 1.173V43.194C68.7829 43.976 68.3919 44.367 67.6099 44.367H63.8839C63.1479 44.367 62.5499 43.999 62.0899 43.263L45.5299 13.593H45.2539V43.194C45.2539 43.976 44.8629 44.367 44.0809 44.367Z" fill="black"></path><path d="M0 33.603V31.809C0 31.027 0.391 30.636 1.173 30.636H5.589C6.371 30.636 6.762 31.027 6.762 31.809V33.051C6.762 34.983 7.176 36.386 8.004 37.26C8.878 38.088 10.304 38.502 12.282 38.502H17.043C19.021 38.502 20.447 38.065 21.321 37.191C22.195 36.271 22.632 34.799 22.632 32.775V31.188C22.632 29.716 22.057 28.566 20.907 27.738C19.803 26.864 18.423 26.312 16.767 26.082C15.111 25.806 13.294 25.438 11.316 24.978C9.338 24.518 7.521 23.989 5.865 23.391C4.209 22.793 2.806 21.666 1.656 20.01C0.552 18.354 0 16.238 0 13.662V10.764C0 7.406 0.943 4.784 2.829 2.898C4.761 0.966001 7.406 0 10.764 0H18.078C21.482 0 24.127 0.966001 26.013 2.898C27.945 4.784 28.911 7.406 28.911 10.764V12.282C28.911 13.064 28.52 13.455 27.738 13.455H23.322C22.54 13.455 22.149 13.064 22.149 12.282V11.385C22.149 9.407 21.712 8.004 20.838 7.176C20.01 6.302 18.607 5.865 16.629 5.865H12.282C10.304 5.865 8.878 6.325 8.004 7.245C7.176 8.119 6.762 9.637 6.762 11.799V13.938C6.762 16.008 8.257 17.411 11.247 18.147C12.581 18.469 14.03 18.745 15.594 18.975C17.204 19.205 18.814 19.55 20.424 20.01C22.034 20.47 23.506 21.091 24.84 21.873C26.174 22.609 27.255 23.759 28.083 25.323C28.911 26.841 29.325 28.704 29.325 30.912V33.603C29.325 36.961 28.359 39.606 26.427 41.538C24.541 43.424 21.919 44.367 18.561 44.367H10.833C7.475 44.367 4.83 43.424 2.898 41.538C0.966 39.606 0 36.961 0 33.603Z" fill="black"></path></svg> 